<?xml version="1.0" standalone="no"?>
<!DOCTYPE svg PUBLIC "-//W3C//DTD SVG 20010904//EN"
 "http://www.w3.org/TR/2001/REC-SVG-20010904/DTD/svg10.dtd">
<svg version="1.0" xmlns="http://www.w3.org/2000/svg"
 width="933.000000pt" height="933.000000pt" viewBox="0 0 933.000000 933.000000"
 preserveAspectRatio="xMidYMid meet">
<metadata>
Created by potrace 1.11, written by Peter Selinger 2001-2013
</metadata>
<g transform="translate(0.000000,933.000000) scale(0.100000,-0.100000)"
fill="#000000" stroke="none">
<path d="M4085 8912 c-128 -44 -249 -135 -316 -238 -69 -104 -89 -139 -100
-173 -13 -39 -31 -56 -67 -66 -12 -3 -46 -16 -75 -29 -28 -14 -90 -41 -137
-61 -122 -54 -154 -68 -253 -114 -49 -23 -90 -41 -93 -41 -2 0 -37 -15 -76
-34 -40 -18 -98 -44 -128 -58 -30 -14 -82 -38 -115 -54 -33 -15 -62 -29 -65
-29 -6 -2 -61 -27 -180 -82 -47 -22 -107 -48 -134 -59 -75 -30 -74 -70 3 -53
20 4 50 10 66 13 40 8 132 24 170 31 17 2 40 7 51 9 12 2 37 7 55 10 19 3 45
8 59 11 14 3 39 8 55 10 35 7 190 35 220 41 24 5 123 23 162 30 16 3 38 7 51
9 33 7 68 14 162 31 47 9 96 18 110 21 14 3 34 6 45 8 11 1 59 10 107 19 l87
17 54 -31 c48 -27 57 -37 71 -79 16 -50 23 -174 11 -225 -26 -123 -76 -223
-198 -403 -51 -74 -97 -143 -104 -155 -6 -11 -15 -23 -20 -27 -5 -3 -31 -37
-58 -76 -27 -38 -53 -71 -57 -73 -4 -2 -8 -8 -8 -12 0 -11 -102 -164 -112
-168 -5 -2 -8 -8 -8 -14 0 -5 -8 -22 -19 -36 -26 -37 -133 -242 -126 -242 3 0
-1 -10 -9 -22 -14 -23 -84 -214 -92 -253 -2 -11 -6 -29 -8 -40 -2 -11 -9 -38
-14 -60 -9 -34 -15 -70 -28 -170 -1 -11 -3 -20 -4 -20 -2 0 -10 -124 -14 -222
-3 -56 -7 -107 -11 -113 -3 -5 -2 -10 2 -10 7 0 9 -73 3 -105 -1 -6 -1 -12 0
-15 1 -3 3 -50 5 -105 4 -166 9 -275 11 -275 1 0 16 18 32 41 17 22 32 37 34
32 9 -17 -5 -215 -18 -256 -6 -19 -6 -19 26 -1 18 11 45 32 61 48 16 16 31 27
34 24 8 -8 8 -195 0 -243 -4 -22 -9 -49 -10 -60 -2 -11 -6 -32 -9 -47 -11 -51
34 -27 131 70 24 23 45 42 48 42 5 0 -1 -86 -10 -145 -12 -78 -14 -85 -21 -96
-18 -30 100 26 130 61 l23 28 56 -81 c87 -128 195 -245 322 -352 33 -27 62
-53 65 -56 5 -5 132 -92 253 -172 40 -26 80 -50 90 -53 9 -4 17 -9 17 -13 0
-4 8 -16 18 -27 23 -27 41 -55 48 -77 4 -9 10 -17 15 -17 5 0 9 -5 9 -11 0 -6
16 -34 35 -63 19 -29 35 -58 35 -64 0 -6 6 -15 13 -19 6 -4 21 -24 31 -43 11
-19 39 -66 63 -103 34 -53 47 -66 57 -58 10 8 16 -1 29 -42 16 -52 18 -74 5
-70 -4 2 -24 5 -45 7 -22 3 -79 12 -129 21 -49 8 -105 17 -124 19 -19 3 -46 7
-60 10 -14 2 -47 7 -75 10 -109 13 -315 50 -430 76 -108 26 -223 31 -286 15
-50 -13 -164 -68 -190 -91 -8 -8 -19 -14 -23 -14 -8 0 -245 -179 -275 -208 -9
-9 -59 -55 -110 -102 -164 -150 -199 -188 -215 -237 -9 -26 -16 -51 -16 -56 0
-11 50 19 66 39 6 8 21 15 33 17 11 2 78 57 147 123 69 65 128 121 132 124 27
22 -141 -169 -216 -246 -25 -26 -82 -128 -82 -147 0 -10 5 -28 11 -39 11 -20
12 -20 25 8 8 16 31 40 52 53 20 13 73 68 117 123 44 55 100 121 124 147 l44
46 -47 -67 c-25 -37 -46 -69 -46 -73 0 -3 -11 -21 -24 -38 -13 -18 -44 -66
-68 -107 -34 -58 -42 -82 -38 -105 l5 -29 23 24 c12 13 22 27 22 32 0 4 6 8
13 8 20 0 97 58 104 78 12 32 52 117 75 157 62 109 230 284 306 321 61 29 179
24 252 -10 62 -29 77 -41 154 -116 42 -41 83 -75 92 -76 9 -1 24 -10 33 -18
26 -24 31 -20 31 23 0 40 -24 80 -69 116 -55 43 -103 95 -98 107 4 14 83 15
162 4 22 -4 58 -9 80 -12 22 -3 42 -7 45 -9 3 -2 23 -6 45 -9 22 -3 63 -11 90
-16 62 -12 114 -21 140 -25 29 -5 83 -14 140 -25 28 -5 64 -11 80 -14 59 -9
115 -19 115 -20 0 -1 18 -56 41 -121 23 -66 43 -131 46 -144 2 -14 6 -27 8
-31 2 -4 -2 -33 -10 -66 -14 -61 -14 -140 1 -359 10 -133 9 -384 0 -690 -3
-110 -8 -270 -10 -355 -3 -85 -8 -185 -11 -221 -7 -82 -40 -203 -66 -246 -17
-26 -80 -88 -115 -111 -32 -21 -56 -32 -72 -32 -10 0 -22 -3 -26 -7 -4 -5 -12
-9 -17 -9 -5 -1 -10 -2 -11 -4 -4 -3 -47 -8 -128 -14 -41 -4 -97 -9 -125 -11
-71 -6 -228 -17 -240 -16 -5 0 -49 3 -97 6 -81 6 -88 5 -109 -16 -18 -18 -20
-24 -8 -27 8 -2 32 -13 53 -24 31 -15 58 -19 135 -18 53 0 108 2 123 4 14 2
32 0 39 -4 17 -11 -47 -20 -174 -25 -146 -5 -218 -31 -203 -72 4 -9 9 -13 12
-10 3 2 27 -1 54 -8 26 -7 63 -11 81 -9 73 7 125 14 149 19 28 5 95 16 127 20
11 2 32 6 45 10 12 4 20 4 17 1 -9 -9 -139 -56 -139 -50 0 3 -8 1 -17 -4 -10
-5 -38 -12 -63 -15 -25 -4 -56 -9 -70 -12 -14 -3 -34 -8 -45 -10 -11 -3 -31
-7 -45 -11 -14 -3 -30 -6 -37 -8 -12 -2 -73 -66 -73 -76 0 -3 26 -6 58 -6 31
-1 75 -3 97 -4 25 -1 55 6 80 18 45 23 92 43 115 48 21 5 400 105 545 144 146
40 204 52 216 44 5 -3 17 -7 26 -9 10 -1 61 -14 113 -28 52 -14 109 -24 126
-22 51 5 93 16 100 26 8 14 -36 47 -76 56 -45 9 -38 8 -90 22 -135 36 -141 44
-138 148 2 46 6 83 9 83 3 0 5 10 4 22 -1 13 2 39 6 58 4 19 10 67 14 105 4
39 8 84 11 100 2 17 6 57 9 90 2 33 7 89 10 125 3 36 8 94 10 130 5 70 13 165
15 165 0 0 3 32 5 70 3 39 7 90 9 115 5 44 13 128 21 225 2 28 6 73 9 100 3
28 8 79 11 115 4 36 18 98 31 137 34 98 36 109 39 178 3 49 -2 73 -28 130 -17
39 -34 72 -37 75 -3 3 -18 41 -34 85 -15 44 -36 103 -46 130 -22 58 -18 62 54
47 28 -7 62 -14 76 -17 22 -4 50 -10 130 -29 39 -9 83 -17 113 -20 17 -2 44
-21 73 -50 25 -26 57 -52 72 -58 98 -40 183 24 178 133 -2 35 -13 60 -55 122
-70 104 -150 274 -145 307 5 27 44 130 54 143 14 17 144 31 169 17 11 -6 42
-11 68 -12 27 -1 60 -7 74 -14 16 -8 47 -11 82 -8 43 4 58 2 63 -9 6 -16 7
-16 94 -20 36 -2 78 -9 95 -16 16 -6 54 -11 85 -10 30 1 69 -4 85 -10 17 -7
50 -14 75 -16 26 -2 83 -21 135 -45 50 -23 110 -51 135 -62 224 -100 275 -130
312 -181 73 -101 265 -304 358 -378 49 -40 121 -79 144 -79 8 0 17 12 20 27
10 49 -8 315 -29 433 -2 14 -7 42 -10 63 -3 20 -7 54 -11 75 -17 119 -71 328
-144 557 -17 55 -33 107 -35 115 -13 56 -94 266 -141 365 -13 28 -24 54 -24
57 0 4 -18 37 -40 73 -22 36 -40 70 -40 75 0 6 -4 10 -10 10 -5 0 -10 6 -10
13 0 8 -9 22 -20 32 -11 10 -20 22 -20 28 0 5 -10 21 -22 36 -13 15 -34 42
-48 61 -14 18 -33 42 -44 54 -10 11 -30 37 -45 56 -93 124 -334 370 -460 470
-24 19 -50 41 -57 48 -7 6 -17 12 -22 12 -6 0 -12 3 -14 8 -3 6 -101 73 -162
109 -12 7 -70 37 -131 67 -146 72 -285 118 -351 115 -27 -1 -55 0 -60 3 -8 5
-76 21 -96 23 -3 0 -10 3 -14 8 -4 4 -16 7 -26 7 -14 0 -18 8 -18 34 0 27 -4
35 -17 34 -25 0 -113 10 -143 17 -14 3 -35 8 -48 11 -13 2 -42 11 -65 18 -51
17 -179 55 -189 56 -4 1 -29 7 -55 15 -27 8 -86 21 -133 29 -79 14 -100 19
-155 30 -11 2 -33 9 -50 16 -16 6 -32 12 -35 12 -52 6 -220 91 -242 123 -4 5
-8 7 -8 3 0 -3 -17 10 -38 31 -44 43 -112 143 -112 163 0 8 -5 19 -10 24 -6 6
-13 22 -15 35 -3 13 -11 47 -18 76 -28 106 -15 318 28 468 37 127 168 417 199
437 6 4 8 8 4 8 -5 0 27 53 69 118 70 106 172 272 215 347 43 77 95 207 114
290 4 17 8 85 9 152 6 236 -48 387 -188 525 -32 32 -118 90 -137 94 -3 0 -12
3 -20 6 -97 35 -193 35 -295 0z m890 -5252 c33 -10 80 -25 104 -33 41 -12 51
-22 125 -133 75 -110 132 -216 141 -264 2 -11 7 -25 10 -30 9 -14 -29 -13
-121 4 -44 8 -95 17 -114 20 -39 6 -78 13 -130 22 -19 4 -48 8 -63 10 -41 5
-45 9 -61 65 -8 27 -18 55 -23 62 -16 26 -12 39 12 33 20 -5 24 -1 31 32 4 20
9 44 10 52 2 8 5 52 6 97 2 46 5 83 8 83 3 0 32 -9 65 -20z"/>
</g>
</svg>
